 <svg
              viewBox="0 0 58 58"
              fit=""
              height="100%"
              width="100%"
              preserveAspectRatio="xMidYMid meet"
              focusable="false"
            >
              <g fill-rule="nonzero" fill="none">
                <path
                  d="M54.23 58H3.77A3.77 3.77 0 0 1 0 54.23V3.77A3.77 3.77 0 0 1 3.77 0h50.46A3.77 3.77 0 0 1 58 3.77v50.46C58 56.3 56.3 58 54.23 58Z"
                  fill="#FEF800"
                  opacity=".6"
                ></path>
                <g opacity=".4" fill="#29377F">
                  <path d="M25.46 26.53a7.11 7.11 0 0 0 2.27-1.7 2.1 2.1 0 0 0 .4-2.18c-.17-.51-.54-.9-1.1-1.17a4.13 4.13 0 0 0-2.1-.32c-.86.05-1.83.3-2.93.74a16.3 16.3 0 0 0-3.49 2.01l.72 4.36a18.92 18.92 0 0 0 6.23-1.74ZM29.33 32.1a7.05 7.05 0 0 0-2.18-.62c-.82-.1-1.65-.13-2.5-.1-.86.05-1.7.15-2.53.31-.82.16-1.57.37-2.23.62l.82 4.97c.55.4 1.2.69 1.95.89a11.05 11.05 0 0 0 6.81-.36c.61-.26 1.11-.6 1.49-1.02.38-.41.56-.87.55-1.38a3.45 3.45 0 0 0-.62-2.04c-.4-.54-.93-.95-1.56-1.27Z"></path>
                  <path d="M47.74 37.45c0-.18-.03-.36-.04-.54L46.5 10.2l-12.79.52.23 5.04c-.08-.1-.18-.16-.27-.24a10.95 10.95 0 0 0-5.03-2.38 15.2 15.2 0 0 0-7.13.41v-.04L9.04 15.57l5.42 33.35 12.54-2.07-.01-.08a19.1 19.1 0 0 0 4.99-.8 13.56 13.56 0 0 0 3.78-1.8c.52-.36 1-.75 1.44-1.19a6.38 6.38 0 0 0 3.93 1.31h.29A6.44 6.44 0 0 0 46 42.17a6.46 6.46 0 0 0 1.75-4.45l-.01-.27Zm-12.18-1.57a6.2 6.2 0 0 1-2.74 4.74c-.77.53-1.63.94-2.58 1.24-.96.29-1.95.48-2.97.56-1.02.08-2.03.07-3.03-.02-1-.1-1.92-.3-2.77-.57l.24 1.46-4.14.68-4.03-24.75 4.08-.68.2 1.2a17.1 17.1 0 0 1 5.24-2.15 10.7 10.7 0 0 1 4.25-.12 6.6 6.6 0 0 1 3.08 1.43c.82.7 1.39 1.5 1.71 2.43a5.36 5.36 0 0 1-.11 3.6 7.47 7.47 0 0 1-2.62 3.4c.93.24 1.8.59 2.59 1.05a7.96 7.96 0 0 1 2.03 1.68c.55.66.98 1.4 1.25 2.22.28.8.39 1.67.32 2.6Zm6.26-21.1.8 18.16-4.3.18-.81-18.17 4.3-.17Zm.41 24.47c-.43.47-.97.72-1.62.75-.64.02-1.2-.18-1.68-.61a2.23 2.23 0 0 1-.75-1.63c-.03-.64.18-1.2.61-1.68s.97-.73 1.63-.75c.64-.02 1.2.18 1.68.61.47.44.72.97.75 1.63.03.64-.18 1.2-.62 1.68Z"></path>
                </g>
              </g>
            </svg>