 <svg
              viewBox="0 0 58 58"
              fit=""
              height="100%"
              width="100%"
              preserveAspectRatio="xMidYMid meet"
              focusable="false"
            >
              <g fill="none" fill-rule="evenodd">
                <rect fill="#02051e" width="58" height="58" rx="4"></rect>
                <g transform="rotate(-11 79.16 -29.11)">
                  <circle
                    stroke="#FF7400"
                    fill="#FFCF00"
                    cx="15.69"
                    cy="15.69"
                    r="15.69"
                  ></circle>
                  <circle
                    stroke="#FF7400"
                    fill="#FFCF00"
                    opacity=".45"
                    cx="15.69"
                    cy="15.69"
                    r="12.84"
                  ></circle>
                  <path
                    d="m22.28 7.54.5 11.03a4.87 4.87 0 0 1 .01.34c0 .69-.25 1.32-.72 1.84-.5.54-1.15.84-1.89.87h-.12c-.6 0-1.15-.18-1.62-.54a5.6 5.6 0 0 1-2.16 1.23 7.9 7.9 0 0 1-2.07.34v.03l-5.18.86L6.8 9.76l5.15-.85v.01l.48-.11c.9-.19 1.73-.2 2.47-.06.81.17 1.51.5 2.08.98l.11.1-.1-2.08 5.3-.21Zm-7.94 3c-.5-.1-1.1-.08-1.76.05-.66.13-1.38.43-2.16.9l-.08-.5-1.69.27 1.66 10.23 1.72-.28-.1-.6c.35.1.73.19 1.14.23a7.14 7.14 0 0 0 2.48-.22c.4-.13.75-.3 1.07-.51a2.56 2.56 0 0 0 1.13-1.96 2.66 2.66 0 0 0-.65-2 3.3 3.3 0 0 0-.84-.69 4 4 0 0 0-1.07-.43c.54-.4.9-.88 1.09-1.4.19-.53.2-1.03.04-1.5a2.33 2.33 0 0 0-.7-1c-.34-.3-.77-.49-1.28-.59Zm5.42 7.38a.92.92 0 0 0-.67.3.94.94 0 0 0-.25.7c0 .27.1.5.3.68.2.18.43.26.7.25.27-.01.5-.11.67-.31.18-.2.27-.43.26-.7a.92.92 0 0 0-.31-.67.94.94 0 0 0-.7-.25Zm-6.52-1.63c.35-.02.7 0 1.04.04.34.04.64.13.9.26s.47.3.64.52c.17.22.25.5.26.84 0 .21-.07.4-.23.57a1.7 1.7 0 0 1-.61.42 4.67 4.67 0 0 1-2.82.15c-.3-.08-.58-.2-.8-.37l-.34-2.05a7.75 7.75 0 0 1 1.96-.38Zm7.1-6.86-1.78.07.34 7.5 1.78-.07-.34-7.5Zm-6.98 2.63c.35-.02.64.02.87.14.23.11.38.27.45.48.12.33.06.63-.16.9-.23.27-.54.5-.94.7A7.83 7.83 0 0 1 11 15l-.3-1.8c.52-.37 1-.65 1.45-.83.45-.18.85-.28 1.2-.3Z"
                    fill="#FFA200"
                    fill-rule="nonzero"
                  ></path>
                </g>
                <path
                  d="M30.5 14.02a5.41 5.41 0 0 0 5.36-5.45c0 3.01 2.4 5.45 5.37 5.45a5.41 5.41 0 0 0-5.37 5.45c0-3-2.4-5.45-5.37-5.45Z"
                  fill="#FFF"
                ></path>
                <g transform="rotate(34 -14.66 62.9)">
                  <circle
                    stroke="#FF7400"
                    stroke-width=".7"
                    fill="#FFCF00"
                    cx="10.98"
                    cy="10.98"
                    r="10.98"
                  ></circle>
                  <circle
                    stroke="#FF7400"
                    stroke-width=".7"
                    fill="#FFCF00"
                    opacity=".45"
                    cx="10.98"
                    cy="10.98"
                    r="8.99"
                  ></circle>
                  <path
                    d="m16.77 5.37.22 8.28.01.17a2 2 0 0 1-.56 1.45 2 2 0 0 1-1.43.63h-.1c-.44 0-.85-.15-1.2-.42a4.2 4.2 0 0 1-1.64.9 5.93 5.93 0 0 1-1.55.21v.03l-3.9.57-1.5-10.36L9 6.26v.01l.36-.08c.67-.12 1.3-.13 1.85 0 .6.13 1.12.38 1.55.76l.08.07-.04-1.56 3.97-.1Zm-6 2.15a3.32 3.32 0 0 0-1.31.01c-.5.1-1.05.3-1.64.64l-.05-.37-1.27.18 1.11 7.7 1.29-.2-.07-.45c.26.1.55.16.86.2a5.36 5.36 0 0 0 1.86-.14c.3-.09.57-.21.8-.37a1.92 1.92 0 0 0 .88-1.45 2 2 0 0 0-.46-1.5c-.17-.21-.38-.39-.62-.54a3 3 0 0 0-.8-.33c.41-.3.69-.65.84-1.05.14-.39.16-.76.05-1.11-.1-.29-.27-.54-.52-.76a2.05 2.05 0 0 0-.94-.46Zm3.97 5.6a.7.7 0 0 0-.5.22.7.7 0 0 0-.2.52c0 .2.07.37.22.51.14.14.32.2.52.2a.7.7 0 0 0 .5-.22.7.7 0 0 0 .2-.52c0-.2-.08-.37-.22-.51a.7.7 0 0 0-.52-.2Zm-4.87-1.3c.27-.01.53 0 .78.04.25.03.48.1.67.2.2.1.36.23.48.4s.18.38.18.64a.6.6 0 0 1-.18.42c-.12.13-.27.23-.47.31a3.5 3.5 0 0 1-2.11.08 1.84 1.84 0 0 1-.6-.3l-.23-1.53a4.31 4.31 0 0 1 1.48-.27Zm5.42-5.06-1.34.03.16 5.63 1.33-.03-.15-5.63ZM10 8.65c.27-.02.49.02.66.1.17.1.28.22.33.38.09.25.04.47-.13.67-.18.2-.42.37-.72.52a5.87 5.87 0 0 1-1.94.5l-.2-1.36c.39-.27.75-.47 1.1-.6.34-.13.64-.2.9-.21Z"
                    fill="#FFA200"
                    fill-rule="nonzero"
                  ></path>
                </g>
                <path
                  d="M41.16 23.35a3.79 3.79 0 0 0 5.36-.04 3.79 3.79 0 0 0-.04 5.36 3.79 3.79 0 0 0-5.36.04 3.79 3.79 0 0 0 .04-5.36Z"
                  fill="#FFF"
                ></path>
                <g>
                  <g transform="rotate(-56 46.23 8.54)">
                    <ellipse
                      stroke="#FF7400"
                      stroke-width=".5"
                      fill="#FFCF00"
                      cx="7.84"
                      cy="7.79"
                      rx="7.84"
                      ry="7.79"
                    ></ellipse>
                    <ellipse
                      stroke="#FF7400"
                      stroke-width=".5"
                      fill="#FFCF00"
                      opacity=".45"
                      cx="7.84"
                      cy="7.79"
                      rx="6.42"
                      ry="6.38"
                    ></ellipse>
                    <path
                      d="m11.81 4.07.15 5.52v.1a1.33 1.33 0 0 1-.38.97c-.24.27-.57.42-.94.43h-.06c-.3 0-.57-.1-.8-.29a2.8 2.8 0 0 1-1.09.6 3.95 3.95 0 0 1-1.04.15v.02l-2.6.38-1-6.9 2.58-.39.24-.05c.45-.08.87-.08 1.24 0 .4.09.75.26 1.03.5l.05.06-.02-1.04 2.64-.06Zm-4 1.43a2.21 2.21 0 0 0-.87 0c-.34.07-.7.21-1.1.44l-.03-.25-.84.12.74 5.13.86-.13-.05-.3a3.57 3.57 0 0 0 1.81.04c.2-.06.38-.14.54-.25a1.28 1.28 0 0 0 .58-.97 1.33 1.33 0 0 0-.3-1 1.65 1.65 0 0 0-.41-.35 2 2 0 0 0-.54-.23c.28-.2.46-.43.56-.7.1-.26.1-.5.03-.74-.06-.19-.17-.36-.34-.5a1.37 1.37 0 0 0-.63-.31Zm2.65 3.74a.46.46 0 0 0-.34.14c-.09.1-.13.22-.13.35 0 .13.05.25.15.34.1.09.21.13.35.13.13 0 .24-.05.33-.15.1-.1.14-.21.14-.34a.46.46 0 0 0-.15-.34.47.47 0 0 0-.35-.13Zm-3.24-.88c.17 0 .35 0 .52.03.16.03.31.07.44.14a.9.9 0 0 1 .32.27c.08.1.12.25.12.42 0 .1-.04.2-.12.28a.85.85 0 0 1-.3.2 2.33 2.33 0 0 1-1.4.05c-.17-.04-.3-.1-.42-.18l-.15-1.03a2.88 2.88 0 0 1 .99-.18ZM10.82 5l-.88.03.1 3.75.89-.02-.1-3.76Zm-3.5 1.26c.17 0 .31.02.43.08.11.05.19.14.22.24.06.17.02.32-.1.45-.1.13-.26.25-.47.34a3.91 3.91 0 0 1-1.3.34h.01l-.13-.9c.26-.18.5-.32.73-.4.22-.1.43-.14.6-.15Z"
                      fill="#FFA200"
                      fill-rule="nonzero"
                    ></path>
                  </g>
                  <path
                    d="M25.34 34.23a2.7 2.7 0 0 0-.01-3.82 2.7 2.7 0 0 0 3.8.02 2.7 2.7 0 0 0 .03 3.81 2.7 2.7 0 0 0-3.82-.01Z"
                    fill="#FFF"
                  ></path>
                </g>
              </g>
            </svg>